<mxfile host="app.diagrams.net" modified="2021-08-25T08:55:13.621Z" agent="5.0 (Macintosh; Intel Mac OS X 10_14_6) AppleWebKit/537.36 (KHTML, like Gecko) Chrome/92.0.4515.159 Safari/537.36" etag="x1UeCQpEpa3PHrASSBqH" version="14.9.6" type="github">
  <diagram id="nkJ-QGSBY8DG7HO-VsuY" name="Page-1">
    <mxGraphModel dx="2365" dy="2532" grid="1" gridSize="10" guides="1" tooltips="1" connect="1" arrows="1" fold="1" page="1" pageScale="1" pageWidth="827" pageHeight="1169" math="0" shadow="0">
      <root>
        <mxCell id="0" />
        <mxCell id="1" parent="0" />
        <mxCell id="VY6c4FjqXXWUkbKF5zzN-43" value="创建&lt;br&gt;ka-retain-tool/add" style="shape=trapezoid;perimeter=trapezoidPerimeter;whiteSpace=wrap;html=1;fixedSize=1;fillColor=#dae8fc;strokeColor=#6c8ebf;" vertex="1" parent="1">
          <mxGeometry x="100" y="70" width="120" height="60" as="geometry" />
        </mxCell>
        <mxCell id="VY6c4FjqXXWUkbKF5zzN-44" value="打包&lt;br&gt;group/ka/create" style="shape=trapezoid;perimeter=trapezoidPerimeter;whiteSpace=wrap;html=1;fixedSize=1;fillColor=#ffe6cc;strokeColor=#d79b00;" vertex="1" parent="1">
          <mxGeometry x="100" y="170" width="120" height="60" as="geometry" />
        </mxCell>
        <mxCell id="VY6c4FjqXXWUkbKF5zzN-45" value="" style="endArrow=classic;html=1;exitX=0.5;exitY=1;exitDx=0;exitDy=0;entryX=0.5;entryY=0;entryDx=0;entryDy=0;" edge="1" parent="1" source="VY6c4FjqXXWUkbKF5zzN-43" target="VY6c4FjqXXWUkbKF5zzN-44">
          <mxGeometry width="50" height="50" relative="1" as="geometry">
            <mxPoint x="250" y="330" as="sourcePoint" />
            <mxPoint x="300" y="280" as="targetPoint" />
          </mxGeometry>
        </mxCell>
        <mxCell id="VY6c4FjqXXWUkbKF5zzN-147" style="edgeStyle=orthogonalEdgeStyle;rounded=0;orthogonalLoop=1;jettySize=auto;html=1;exitX=0.5;exitY=1;exitDx=0;exitDy=0;entryX=0.5;entryY=0;entryDx=0;entryDy=0;" edge="1" parent="1" source="VY6c4FjqXXWUkbKF5zzN-49" target="VY6c4FjqXXWUkbKF5zzN-61">
          <mxGeometry relative="1" as="geometry" />
        </mxCell>
        <mxCell id="VY6c4FjqXXWUkbKF5zzN-49" value="打包成功回调&lt;br&gt;ka-retain-tool/package-success" style="shape=trapezoid;perimeter=trapezoidPerimeter;whiteSpace=wrap;html=1;fixedSize=1;fillColor=#dae8fc;strokeColor=#6c8ebf;" vertex="1" parent="1">
          <mxGeometry x="100" y="280" width="120" height="60" as="geometry" />
        </mxCell>
        <mxCell id="VY6c4FjqXXWUkbKF5zzN-50" value="回调sate" style="endArrow=classic;html=1;" edge="1" parent="1" source="VY6c4FjqXXWUkbKF5zzN-44" target="VY6c4FjqXXWUkbKF5zzN-49">
          <mxGeometry width="50" height="50" relative="1" as="geometry">
            <mxPoint x="330" y="390" as="sourcePoint" />
            <mxPoint x="380" y="340" as="targetPoint" />
          </mxGeometry>
        </mxCell>
        <mxCell id="VY6c4FjqXXWUkbKF5zzN-148" style="edgeStyle=orthogonalEdgeStyle;rounded=0;orthogonalLoop=1;jettySize=auto;html=1;exitX=0.5;exitY=1;exitDx=0;exitDy=0;entryX=0.5;entryY=0;entryDx=0;entryDy=0;" edge="1" parent="1" source="VY6c4FjqXXWUkbKF5zzN-61" target="VY6c4FjqXXWUkbKF5zzN-64">
          <mxGeometry relative="1" as="geometry" />
        </mxCell>
        <mxCell id="VY6c4FjqXXWUkbKF5zzN-153" value="" style="edgeStyle=orthogonalEdgeStyle;rounded=0;orthogonalLoop=1;jettySize=auto;html=1;" edge="1" parent="1" source="VY6c4FjqXXWUkbKF5zzN-61" target="VY6c4FjqXXWUkbKF5zzN-64">
          <mxGeometry relative="1" as="geometry" />
        </mxCell>
        <mxCell id="VY6c4FjqXXWUkbKF5zzN-61" value="coverage_number = 0" style="rhombus;whiteSpace=wrap;html=1;fillColor=#dae8fc;strokeColor=#6c8ebf;" vertex="1" parent="1">
          <mxGeometry x="105" y="380" width="110" height="90" as="geometry" />
        </mxCell>
        <mxCell id="VY6c4FjqXXWUkbKF5zzN-69" value="" style="edgeStyle=orthogonalEdgeStyle;rounded=0;orthogonalLoop=1;jettySize=auto;html=1;" edge="1" parent="1" source="VY6c4FjqXXWUkbKF5zzN-64" target="VY6c4FjqXXWUkbKF5zzN-68">
          <mxGeometry relative="1" as="geometry" />
        </mxCell>
        <mxCell id="VY6c4FjqXXWUkbKF5zzN-64" value="createPUI" style="rhombus;whiteSpace=wrap;html=1;fillColor=#e1d5e7;strokeColor=#9673a6;" vertex="1" parent="1">
          <mxGeometry x="120" y="490" width="80" height="80" as="geometry" />
        </mxCell>
        <mxCell id="VY6c4FjqXXWUkbKF5zzN-68" value="enablePUI" style="rhombus;whiteSpace=wrap;html=1;fillColor=#e1d5e7;strokeColor=#9673a6;" vertex="1" parent="1">
          <mxGeometry x="120" y="610" width="80" height="80" as="geometry" />
        </mxCell>
        <mxCell id="VY6c4FjqXXWUkbKF5zzN-85" style="edgeStyle=orthogonalEdgeStyle;rounded=0;orthogonalLoop=1;jettySize=auto;html=1;exitX=1;exitY=0.5;exitDx=0;exitDy=0;" edge="1" parent="1" source="VY6c4FjqXXWUkbKF5zzN-84">
          <mxGeometry relative="1" as="geometry">
            <mxPoint x="270" y="-40" as="targetPoint" />
          </mxGeometry>
        </mxCell>
        <mxCell id="VY6c4FjqXXWUkbKF5zzN-84" value="&lt;span&gt;编辑&lt;br&gt;ka-retain-tool/add&lt;/span&gt;" style="shape=trapezoid;perimeter=trapezoidPerimeter;whiteSpace=wrap;html=1;fixedSize=1;fillColor=#dae8fc;strokeColor=#6c8ebf;" vertex="1" parent="1">
          <mxGeometry x="100" y="-70" width="120" height="60" as="geometry" />
        </mxCell>
        <mxCell id="VY6c4FjqXXWUkbKF5zzN-86" value="处理中&lt;br&gt;status: 0" style="rounded=1;whiteSpace=wrap;html=1;fillColor=#d5e8d4;strokeColor=#82b366;" vertex="1" parent="1">
          <mxGeometry x="270" y="170" width="120" height="60" as="geometry" />
        </mxCell>
        <mxCell id="VY6c4FjqXXWUkbKF5zzN-87" value="成功" style="endArrow=classic;html=1;exitX=1;exitY=0.5;exitDx=0;exitDy=0;entryX=0;entryY=0.5;entryDx=0;entryDy=0;" edge="1" parent="1" source="VY6c4FjqXXWUkbKF5zzN-43" target="VY6c4FjqXXWUkbKF5zzN-86">
          <mxGeometry width="50" height="50" relative="1" as="geometry">
            <mxPoint x="410" y="240" as="sourcePoint" />
            <mxPoint x="460" y="190" as="targetPoint" />
          </mxGeometry>
        </mxCell>
        <mxCell id="VY6c4FjqXXWUkbKF5zzN-88" value="投放中&lt;br&gt;status:1" style="rounded=1;whiteSpace=wrap;html=1;fillColor=#d5e8d4;strokeColor=#82b366;" vertex="1" parent="1">
          <mxGeometry x="621" y="170" width="120" height="60" as="geometry" />
        </mxCell>
        <mxCell id="VY6c4FjqXXWUkbKF5zzN-89" value="失败&lt;br&gt;status:2" style="rounded=1;whiteSpace=wrap;html=1;fillColor=#d5e8d4;strokeColor=#82b366;" vertex="1" parent="1">
          <mxGeometry x="431" y="170" width="120" height="60" as="geometry" />
        </mxCell>
        <mxCell id="VY6c4FjqXXWUkbKF5zzN-92" value="" style="endArrow=classic;html=1;exitX=1;exitY=0.5;exitDx=0;exitDy=0;entryX=0.5;entryY=1;entryDx=0;entryDy=0;" edge="1" parent="1" source="VY6c4FjqXXWUkbKF5zzN-61" target="VY6c4FjqXXWUkbKF5zzN-89">
          <mxGeometry width="50" height="50" relative="1" as="geometry">
            <mxPoint x="411" y="240" as="sourcePoint" />
            <mxPoint x="461" y="190" as="targetPoint" />
          </mxGeometry>
        </mxCell>
        <mxCell id="VY6c4FjqXXWUkbKF5zzN-96" value="失败" style="edgeLabel;html=1;align=center;verticalAlign=middle;resizable=0;points=[];" vertex="1" connectable="0" parent="VY6c4FjqXXWUkbKF5zzN-92">
          <mxGeometry x="-0.1448" y="-3" relative="1" as="geometry">
            <mxPoint as="offset" />
          </mxGeometry>
        </mxCell>
        <mxCell id="VY6c4FjqXXWUkbKF5zzN-93" value="" style="endArrow=classic;html=1;exitX=1;exitY=0.5;exitDx=0;exitDy=0;entryX=0.5;entryY=1;entryDx=0;entryDy=0;" edge="1" parent="1" source="VY6c4FjqXXWUkbKF5zzN-64" target="VY6c4FjqXXWUkbKF5zzN-89">
          <mxGeometry width="50" height="50" relative="1" as="geometry">
            <mxPoint x="661" y="370" as="sourcePoint" />
            <mxPoint x="641" y="230" as="targetPoint" />
          </mxGeometry>
        </mxCell>
        <mxCell id="VY6c4FjqXXWUkbKF5zzN-97" value="失败" style="edgeLabel;html=1;align=center;verticalAlign=middle;resizable=0;points=[];" vertex="1" connectable="0" parent="VY6c4FjqXXWUkbKF5zzN-93">
          <mxGeometry x="-0.0865" y="4" relative="1" as="geometry">
            <mxPoint as="offset" />
          </mxGeometry>
        </mxCell>
        <mxCell id="VY6c4FjqXXWUkbKF5zzN-94" value="" style="endArrow=classic;html=1;exitX=1;exitY=0.5;exitDx=0;exitDy=0;entryX=0.567;entryY=1.033;entryDx=0;entryDy=0;entryPerimeter=0;" edge="1" parent="1" source="VY6c4FjqXXWUkbKF5zzN-68" target="VY6c4FjqXXWUkbKF5zzN-89">
          <mxGeometry width="50" height="50" relative="1" as="geometry">
            <mxPoint x="671" y="380" as="sourcePoint" />
            <mxPoint x="651" y="240" as="targetPoint" />
          </mxGeometry>
        </mxCell>
        <mxCell id="VY6c4FjqXXWUkbKF5zzN-98" value="失败" style="edgeLabel;html=1;align=center;verticalAlign=middle;resizable=0;points=[];" vertex="1" connectable="0" parent="VY6c4FjqXXWUkbKF5zzN-94">
          <mxGeometry x="0.0068" y="1" relative="1" as="geometry">
            <mxPoint as="offset" />
          </mxGeometry>
        </mxCell>
        <mxCell id="VY6c4FjqXXWUkbKF5zzN-102" value="" style="endArrow=classic;html=1;exitX=1;exitY=0.5;exitDx=0;exitDy=0;entryX=0.5;entryY=1;entryDx=0;entryDy=0;" edge="1" parent="1" source="VY6c4FjqXXWUkbKF5zzN-68" target="VY6c4FjqXXWUkbKF5zzN-88">
          <mxGeometry width="50" height="50" relative="1" as="geometry">
            <mxPoint x="411" y="240" as="sourcePoint" />
            <mxPoint x="461" y="190" as="targetPoint" />
          </mxGeometry>
        </mxCell>
        <mxCell id="VY6c4FjqXXWUkbKF5zzN-103" value="成功" style="edgeLabel;html=1;align=center;verticalAlign=middle;resizable=0;points=[];" vertex="1" connectable="0" parent="VY6c4FjqXXWUkbKF5zzN-102">
          <mxGeometry x="0.3924" y="2" relative="1" as="geometry">
            <mxPoint as="offset" />
          </mxGeometry>
        </mxCell>
        <mxCell id="VY6c4FjqXXWUkbKF5zzN-106" style="edgeStyle=orthogonalEdgeStyle;rounded=0;orthogonalLoop=1;jettySize=auto;html=1;exitX=0.5;exitY=1;exitDx=0;exitDy=0;entryX=0.5;entryY=0;entryDx=0;entryDy=0;" edge="1" parent="1" source="VY6c4FjqXXWUkbKF5zzN-105" target="VY6c4FjqXXWUkbKF5zzN-86">
          <mxGeometry relative="1" as="geometry" />
        </mxCell>
        <mxCell id="VY6c4FjqXXWUkbKF5zzN-110" value="" style="edgeStyle=orthogonalEdgeStyle;rounded=0;orthogonalLoop=1;jettySize=auto;html=1;" edge="1" parent="1" source="VY6c4FjqXXWUkbKF5zzN-105">
          <mxGeometry relative="1" as="geometry">
            <mxPoint x="470" y="-40" as="targetPoint" />
          </mxGeometry>
        </mxCell>
        <mxCell id="VY6c4FjqXXWUkbKF5zzN-105" value="设置状态处理中" style="rounded=1;whiteSpace=wrap;html=1;fillColor=#dae8fc;strokeColor=#6c8ebf;" vertex="1" parent="1">
          <mxGeometry x="270" y="-70" width="120" height="60" as="geometry" />
        </mxCell>
        <mxCell id="VY6c4FjqXXWUkbKF5zzN-113" value="" style="edgeStyle=orthogonalEdgeStyle;rounded=0;orthogonalLoop=1;jettySize=auto;html=1;" edge="1" parent="1" source="VY6c4FjqXXWUkbKF5zzN-111">
          <mxGeometry relative="1" as="geometry">
            <mxPoint x="455" y="-130" as="targetPoint" />
          </mxGeometry>
        </mxCell>
        <mxCell id="VY6c4FjqXXWUkbKF5zzN-114" value="" style="edgeStyle=orthogonalEdgeStyle;rounded=0;orthogonalLoop=1;jettySize=auto;html=1;" edge="1" parent="1" source="VY6c4FjqXXWUkbKF5zzN-111">
          <mxGeometry relative="1" as="geometry">
            <mxPoint x="455" y="-130" as="targetPoint" />
          </mxGeometry>
        </mxCell>
        <mxCell id="VY6c4FjqXXWUkbKF5zzN-115" value="是" style="edgeLabel;html=1;align=center;verticalAlign=middle;resizable=0;points=[];" vertex="1" connectable="0" parent="VY6c4FjqXXWUkbKF5zzN-114">
          <mxGeometry x="-0.1333" relative="1" as="geometry">
            <mxPoint as="offset" />
          </mxGeometry>
        </mxCell>
        <mxCell id="VY6c4FjqXXWUkbKF5zzN-119" value="" style="edgeStyle=orthogonalEdgeStyle;rounded=0;orthogonalLoop=1;jettySize=auto;html=1;" edge="1" parent="1" source="VY6c4FjqXXWUkbKF5zzN-111" target="VY6c4FjqXXWUkbKF5zzN-118">
          <mxGeometry relative="1" as="geometry" />
        </mxCell>
        <mxCell id="VY6c4FjqXXWUkbKF5zzN-111" value="当前任务为失败状态" style="rhombus;whiteSpace=wrap;html=1;fillColor=#dae8fc;strokeColor=#6c8ebf;" vertex="1" parent="1">
          <mxGeometry x="415" y="-80" width="80" height="80" as="geometry" />
        </mxCell>
        <mxCell id="VY6c4FjqXXWUkbKF5zzN-112" value="保存数据结束" style="whiteSpace=wrap;html=1;fillColor=#dae8fc;strokeColor=#6c8ebf;" vertex="1" parent="1">
          <mxGeometry x="394" y="-190" width="120" height="60" as="geometry" />
        </mxCell>
        <mxCell id="VY6c4FjqXXWUkbKF5zzN-123" value="" style="edgeStyle=orthogonalEdgeStyle;rounded=0;orthogonalLoop=1;jettySize=auto;html=1;" edge="1" parent="1" source="VY6c4FjqXXWUkbKF5zzN-118" target="VY6c4FjqXXWUkbKF5zzN-122">
          <mxGeometry relative="1" as="geometry" />
        </mxCell>
        <mxCell id="VY6c4FjqXXWUkbKF5zzN-118" value="禁用PUI" style="rhombus;whiteSpace=wrap;html=1;fillColor=#e1d5e7;strokeColor=#9673a6;" vertex="1" parent="1">
          <mxGeometry x="521" y="-80" width="80" height="80" as="geometry" />
        </mxCell>
        <mxCell id="VY6c4FjqXXWUkbKF5zzN-121" value="失败" style="endArrow=classic;html=1;exitX=0.5;exitY=1;exitDx=0;exitDy=0;entryX=0.5;entryY=0;entryDx=0;entryDy=0;" edge="1" parent="1" source="VY6c4FjqXXWUkbKF5zzN-118" target="VY6c4FjqXXWUkbKF5zzN-89">
          <mxGeometry width="50" height="50" relative="1" as="geometry">
            <mxPoint x="481" y="180" as="sourcePoint" />
            <mxPoint x="531" y="130" as="targetPoint" />
            <Array as="points" />
          </mxGeometry>
        </mxCell>
        <mxCell id="VY6c4FjqXXWUkbKF5zzN-125" value="" style="edgeStyle=orthogonalEdgeStyle;rounded=0;orthogonalLoop=1;jettySize=auto;html=1;" edge="1" parent="1" source="VY6c4FjqXXWUkbKF5zzN-122" target="VY6c4FjqXXWUkbKF5zzN-124">
          <mxGeometry relative="1" as="geometry" />
        </mxCell>
        <mxCell id="VY6c4FjqXXWUkbKF5zzN-132" value="否" style="edgeLabel;html=1;align=center;verticalAlign=middle;resizable=0;points=[];" vertex="1" connectable="0" parent="VY6c4FjqXXWUkbKF5zzN-125">
          <mxGeometry x="-0.2" relative="1" as="geometry">
            <mxPoint as="offset" />
          </mxGeometry>
        </mxCell>
        <mxCell id="VY6c4FjqXXWUkbKF5zzN-122" value="修改人群包信息" style="rhombus;whiteSpace=wrap;html=1;fillColor=#dae8fc;strokeColor=#6c8ebf;" vertex="1" parent="1">
          <mxGeometry x="621" y="-80" width="80" height="80" as="geometry" />
        </mxCell>
        <mxCell id="VY6c4FjqXXWUkbKF5zzN-128" value="" style="edgeStyle=orthogonalEdgeStyle;rounded=0;orthogonalLoop=1;jettySize=auto;html=1;" edge="1" parent="1" source="VY6c4FjqXXWUkbKF5zzN-124" target="VY6c4FjqXXWUkbKF5zzN-127">
          <mxGeometry relative="1" as="geometry" />
        </mxCell>
        <mxCell id="VY6c4FjqXXWUkbKF5zzN-124" value="修改pui" style="rhombus;whiteSpace=wrap;html=1;fillColor=#e1d5e7;strokeColor=#9673a6;" vertex="1" parent="1">
          <mxGeometry x="621" y="30" width="80" height="80" as="geometry" />
        </mxCell>
        <mxCell id="VY6c4FjqXXWUkbKF5zzN-127" value="启用pui" style="rhombus;whiteSpace=wrap;html=1;fillColor=#e1d5e7;strokeColor=#9673a6;" vertex="1" parent="1">
          <mxGeometry x="791" y="30" width="80" height="80" as="geometry" />
        </mxCell>
        <mxCell id="VY6c4FjqXXWUkbKF5zzN-136" value="" style="endArrow=classic;html=1;exitX=0;exitY=0.5;exitDx=0;exitDy=0;" edge="1" parent="1" source="VY6c4FjqXXWUkbKF5zzN-124">
          <mxGeometry width="50" height="50" relative="1" as="geometry">
            <mxPoint x="571" y="190" as="sourcePoint" />
            <mxPoint x="491" y="170" as="targetPoint" />
          </mxGeometry>
        </mxCell>
        <mxCell id="VY6c4FjqXXWUkbKF5zzN-137" value="失败" style="edgeLabel;html=1;align=center;verticalAlign=middle;resizable=0;points=[];" vertex="1" connectable="0" parent="VY6c4FjqXXWUkbKF5zzN-136">
          <mxGeometry x="-0.2972" y="1" relative="1" as="geometry">
            <mxPoint as="offset" />
          </mxGeometry>
        </mxCell>
        <mxCell id="VY6c4FjqXXWUkbKF5zzN-142" value="成功" style="endArrow=classic;html=1;exitX=0.5;exitY=1;exitDx=0;exitDy=0;entryX=1;entryY=0.5;entryDx=0;entryDy=0;" edge="1" parent="1" source="VY6c4FjqXXWUkbKF5zzN-127" target="VY6c4FjqXXWUkbKF5zzN-88">
          <mxGeometry width="50" height="50" relative="1" as="geometry">
            <mxPoint x="881" y="160" as="sourcePoint" />
            <mxPoint x="931" y="110" as="targetPoint" />
            <Array as="points" />
          </mxGeometry>
        </mxCell>
        <mxCell id="VY6c4FjqXXWUkbKF5zzN-144" value="" style="endArrow=classic;html=1;exitX=0.425;exitY=1;exitDx=0;exitDy=0;exitPerimeter=0;entryX=0.5;entryY=0;entryDx=0;entryDy=0;" edge="1" parent="1" source="VY6c4FjqXXWUkbKF5zzN-127" target="VY6c4FjqXXWUkbKF5zzN-89">
          <mxGeometry width="50" height="50" relative="1" as="geometry">
            <mxPoint x="561" y="210" as="sourcePoint" />
            <mxPoint x="611" y="160" as="targetPoint" />
          </mxGeometry>
        </mxCell>
        <mxCell id="VY6c4FjqXXWUkbKF5zzN-145" value="失败" style="edgeLabel;html=1;align=center;verticalAlign=middle;resizable=0;points=[];" vertex="1" connectable="0" parent="VY6c4FjqXXWUkbKF5zzN-144">
          <mxGeometry x="-0.1455" y="-2" relative="1" as="geometry">
            <mxPoint as="offset" />
          </mxGeometry>
        </mxCell>
        <mxCell id="VY6c4FjqXXWUkbKF5zzN-151" value="" style="endArrow=classic;html=1;exitX=0.5;exitY=1;exitDx=0;exitDy=0;entryX=1;entryY=0.25;entryDx=0;entryDy=0;" edge="1" parent="1" source="VY6c4FjqXXWUkbKF5zzN-122" target="VY6c4FjqXXWUkbKF5zzN-44">
          <mxGeometry width="50" height="50" relative="1" as="geometry">
            <mxPoint x="480" y="50" as="sourcePoint" />
            <mxPoint x="530" as="targetPoint" />
          </mxGeometry>
        </mxCell>
        <mxCell id="VY6c4FjqXXWUkbKF5zzN-152" value="是" style="edgeLabel;html=1;align=center;verticalAlign=middle;resizable=0;points=[];" vertex="1" connectable="0" parent="VY6c4FjqXXWUkbKF5zzN-151">
          <mxGeometry x="0.1674" relative="1" as="geometry">
            <mxPoint as="offset" />
          </mxGeometry>
        </mxCell>
        <mxCell id="VY6c4FjqXXWUkbKF5zzN-156" value="" style="edgeStyle=orthogonalEdgeStyle;rounded=0;orthogonalLoop=1;jettySize=auto;html=1;" edge="1" parent="1" source="VY6c4FjqXXWUkbKF5zzN-154" target="VY6c4FjqXXWUkbKF5zzN-155">
          <mxGeometry relative="1" as="geometry" />
        </mxCell>
        <mxCell id="VY6c4FjqXXWUkbKF5zzN-154" value="自动更新脚本&lt;br&gt;ka-retain-tool/auto-update" style="shape=trapezoid;perimeter=trapezoidPerimeter;whiteSpace=wrap;html=1;fixedSize=1;fillColor=#dae8fc;strokeColor=#6c8ebf;" vertex="1" parent="1">
          <mxGeometry x="274" y="610" width="120" height="60" as="geometry" />
        </mxCell>
        <mxCell id="VY6c4FjqXXWUkbKF5zzN-162" value="" style="edgeStyle=orthogonalEdgeStyle;rounded=0;orthogonalLoop=1;jettySize=auto;html=1;" edge="1" parent="1" source="VY6c4FjqXXWUkbKF5zzN-155">
          <mxGeometry relative="1" as="geometry">
            <mxPoint x="600.9999999999998" y="640" as="targetPoint" />
          </mxGeometry>
        </mxCell>
        <mxCell id="VY6c4FjqXXWUkbKF5zzN-155" value="筛选投放中记录" style="whiteSpace=wrap;html=1;strokeColor=#6c8ebf;fillColor=#dae8fc;" vertex="1" parent="1">
          <mxGeometry x="440" y="610" width="120" height="60" as="geometry" />
        </mxCell>
        <mxCell id="VY6c4FjqXXWUkbKF5zzN-158" value="" style="endArrow=classic;html=1;exitX=0.5;exitY=0;exitDx=0;exitDy=0;entryX=0.5;entryY=1;entryDx=0;entryDy=0;" edge="1" parent="1" source="VY6c4FjqXXWUkbKF5zzN-155" target="VY6c4FjqXXWUkbKF5zzN-86">
          <mxGeometry width="50" height="50" relative="1" as="geometry">
            <mxPoint x="590" y="490" as="sourcePoint" />
            <mxPoint x="640" y="440" as="targetPoint" />
          </mxGeometry>
        </mxCell>
        <mxCell id="VY6c4FjqXXWUkbKF5zzN-166" value="" style="edgeStyle=orthogonalEdgeStyle;rounded=0;orthogonalLoop=1;jettySize=auto;html=1;" edge="1" parent="1" source="VY6c4FjqXXWUkbKF5zzN-163" target="VY6c4FjqXXWUkbKF5zzN-165">
          <mxGeometry relative="1" as="geometry" />
        </mxCell>
        <mxCell id="VY6c4FjqXXWUkbKF5zzN-163" value="人群包覆盖数0" style="rhombus;whiteSpace=wrap;html=1;fillColor=#ffe6cc;strokeColor=#d79b00;" vertex="1" parent="1">
          <mxGeometry x="601" y="600" width="80" height="80" as="geometry" />
        </mxCell>
        <mxCell id="VY6c4FjqXXWUkbKF5zzN-164" value="" style="endArrow=classic;html=1;" edge="1" parent="1" source="VY6c4FjqXXWUkbKF5zzN-163" target="VY6c4FjqXXWUkbKF5zzN-89">
          <mxGeometry width="50" height="50" relative="1" as="geometry">
            <mxPoint x="600" y="450" as="sourcePoint" />
            <mxPoint x="650" y="400" as="targetPoint" />
          </mxGeometry>
        </mxCell>
        <mxCell id="VY6c4FjqXXWUkbKF5zzN-168" value="" style="edgeStyle=orthogonalEdgeStyle;rounded=0;orthogonalLoop=1;jettySize=auto;html=1;" edge="1" parent="1" source="VY6c4FjqXXWUkbKF5zzN-165" target="VY6c4FjqXXWUkbKF5zzN-167">
          <mxGeometry relative="1" as="geometry" />
        </mxCell>
        <mxCell id="VY6c4FjqXXWUkbKF5zzN-174" style="edgeStyle=orthogonalEdgeStyle;rounded=0;orthogonalLoop=1;jettySize=auto;html=1;exitX=0.5;exitY=1;exitDx=0;exitDy=0;entryX=0.5;entryY=1;entryDx=0;entryDy=0;" edge="1" parent="1" source="VY6c4FjqXXWUkbKF5zzN-165" target="VY6c4FjqXXWUkbKF5zzN-172">
          <mxGeometry relative="1" as="geometry" />
        </mxCell>
        <mxCell id="VY6c4FjqXXWUkbKF5zzN-165" value="auto_update&lt;br&gt;=1" style="rhombus;whiteSpace=wrap;html=1;fillColor=#dae8fc;strokeColor=#6c8ebf;" vertex="1" parent="1">
          <mxGeometry x="720" y="600" width="80" height="80" as="geometry" />
        </mxCell>
        <mxCell id="VY6c4FjqXXWUkbKF5zzN-176" style="edgeStyle=orthogonalEdgeStyle;rounded=0;orthogonalLoop=1;jettySize=auto;html=1;exitX=0.5;exitY=1;exitDx=0;exitDy=0;" edge="1" parent="1" source="VY6c4FjqXXWUkbKF5zzN-167">
          <mxGeometry relative="1" as="geometry">
            <mxPoint x="980" y="680.5882352941176" as="targetPoint" />
          </mxGeometry>
        </mxCell>
        <mxCell id="VY6c4FjqXXWUkbKF5zzN-167" value="查询创意信息" style="rhombus;whiteSpace=wrap;html=1;fillColor=#e1d5e7;strokeColor=#9673a6;" vertex="1" parent="1">
          <mxGeometry x="827" y="600" width="80" height="80" as="geometry" />
        </mxCell>
        <mxCell id="VY6c4FjqXXWUkbKF5zzN-170" value="" style="endArrow=classic;html=1;exitX=0.5;exitY=0;exitDx=0;exitDy=0;" edge="1" parent="1" source="VY6c4FjqXXWUkbKF5zzN-167">
          <mxGeometry width="50" height="50" relative="1" as="geometry">
            <mxPoint x="600" y="580" as="sourcePoint" />
            <mxPoint x="500" y="230" as="targetPoint" />
          </mxGeometry>
        </mxCell>
        <mxCell id="VY6c4FjqXXWUkbKF5zzN-171" value="失败" style="edgeLabel;html=1;align=center;verticalAlign=middle;resizable=0;points=[];" vertex="1" connectable="0" parent="VY6c4FjqXXWUkbKF5zzN-170">
          <mxGeometry x="-0.0726" y="1" relative="1" as="geometry">
            <mxPoint y="-1" as="offset" />
          </mxGeometry>
        </mxCell>
        <mxCell id="VY6c4FjqXXWUkbKF5zzN-172" value="更新PUI" style="rhombus;whiteSpace=wrap;html=1;fillColor=#e1d5e7;strokeColor=#9673a6;" vertex="1" parent="1">
          <mxGeometry x="940" y="600" width="80" height="80" as="geometry" />
        </mxCell>
        <mxCell id="VY6c4FjqXXWUkbKF5zzN-178" value="" style="endArrow=classic;html=1;exitX=0.5;exitY=0;exitDx=0;exitDy=0;entryX=0.5;entryY=1;entryDx=0;entryDy=0;" edge="1" parent="1" source="VY6c4FjqXXWUkbKF5zzN-172" target="VY6c4FjqXXWUkbKF5zzN-89">
          <mxGeometry width="50" height="50" relative="1" as="geometry">
            <mxPoint x="800" y="550" as="sourcePoint" />
            <mxPoint x="850" y="500" as="targetPoint" />
          </mxGeometry>
        </mxCell>
        <mxCell id="VY6c4FjqXXWUkbKF5zzN-180" value="" style="endArrow=classic;html=1;exitX=1;exitY=0.5;exitDx=0;exitDy=0;entryX=0.5;entryY=1;entryDx=0;entryDy=0;" edge="1" parent="1" source="VY6c4FjqXXWUkbKF5zzN-172" target="VY6c4FjqXXWUkbKF5zzN-88">
          <mxGeometry width="50" height="50" relative="1" as="geometry">
            <mxPoint x="1000" y="450" as="sourcePoint" />
            <mxPoint x="1050" y="400" as="targetPoint" />
          </mxGeometry>
        </mxCell>
        <mxCell id="VY6c4FjqXXWUkbKF5zzN-181" value="成功" style="text;html=1;align=center;verticalAlign=middle;resizable=0;points=[];autosize=1;strokeColor=none;" vertex="1" parent="1">
          <mxGeometry x="780" y="350" width="40" height="20" as="geometry" />
        </mxCell>
        <mxCell id="VY6c4FjqXXWUkbKF5zzN-182" value="失败" style="text;html=1;align=center;verticalAlign=middle;resizable=0;points=[];autosize=1;strokeColor=none;" vertex="1" parent="1">
          <mxGeometry x="700" y="380" width="40" height="20" as="geometry" />
        </mxCell>
      </root>
    </mxGraphModel>
  </diagram>
</mxfile>
